<svg width="14" height="14" viewBox="0 0 14 14" fill="none" xmlns="http://www.w3.org/2000/svg">
<g clip-path="url(#clip0_85_2311)">
<path d="M12.8324 9.86959V11.6196C12.833 11.782 12.7997 11.9429 12.7347 12.0917C12.6696 12.2406 12.5741 12.3742 12.4544 12.484C12.3347 12.5938 12.1934 12.6775 12.0395 12.7295C11.8856 12.7815 11.7225 12.8009 11.5607 12.7863C9.76568 12.5912 8.04144 11.9778 6.52652 10.9954C5.11709 10.0998 3.92214 8.90486 3.02653 7.49542C2.04068 5.97362 1.42717 4.241 1.23569 2.43792C1.22111 2.27661 1.24029 2.11403 1.29198 1.96054C1.34368 1.80704 1.42677 1.66599 1.53597 1.54637C1.64517 1.42674 1.77808 1.33117 1.92624 1.26573C2.0744 1.20028 2.23456 1.16641 2.39653 1.16626H4.14653C4.42962 1.16347 4.70407 1.26372 4.91872 1.44832C5.13337 1.63291 5.27357 1.88927 5.31319 2.16959C5.38705 2.72963 5.52404 3.27951 5.72153 3.80876C5.80001 4.01754 5.81699 4.24446 5.77047 4.4626C5.72395 4.68075 5.61586 4.88099 5.45902 5.03959L4.71819 5.78042C5.5486 7.24082 6.75779 8.45001 8.21819 9.28042L8.95902 8.53959C9.11763 8.38275 9.31786 8.27467 9.53601 8.22814C9.75416 8.18162 9.98107 8.1986 10.1899 8.27709C10.7191 8.47458 11.269 8.61156 11.829 8.68542C12.1124 8.7254 12.3712 8.86813 12.5562 9.08646C12.7412 9.3048 12.8395 9.58351 12.8324 9.86959Z" stroke="#D1DDF3" stroke-width="1.16667" stroke-linecap="round" stroke-linejoin="round"/>
</g>
<defs>
<clipPath id="clip0_85_2311">
<rect width="14" height="14" fill="white"/>
</clipPath>
</defs>
</svg>
