<svg width="20" height="20" viewBox="0 0 20 20" fill="none" xmlns="http://www.w3.org/2000/svg">
<path d="M11.6667 1.66666V6.66666C11.6665 6.94623 11.7368 7.22133 11.8708 7.46666L16.4625 15.8667C16.6014 16.1205 16.6718 16.4061 16.6668 16.6954C16.6618 16.9847 16.5816 17.2678 16.434 17.5167C16.2864 17.7656 16.0766 17.9717 15.8252 18.1149C15.5737 18.2581 15.2894 18.3334 15 18.3333H5C4.71065 18.3334 4.42626 18.2581 4.17482 18.1149C3.92339 17.9717 3.71356 17.7656 3.56599 17.5167C3.41842 17.2678 3.33819 16.9847 3.3332 16.6954C3.3282 16.4061 3.39861 16.1205 3.5375 15.8667L8.12917 7.46666C8.26324 7.22133 8.33345 6.94623 8.33333 6.66666V1.66666" stroke="#F5B800" stroke-width="1.66667" stroke-linecap="round" stroke-linejoin="round"/>
<path d="M5.3775 12.5H14.6225" stroke="#F5B800" stroke-width="1.66667" stroke-linecap="round" stroke-linejoin="round"/>
<path d="M7.08334 1.66666H12.9167" stroke="#F5B800" stroke-width="1.66667" stroke-linecap="round" stroke-linejoin="round"/>
</svg>
