<svg width="20" height="20" viewBox="0 0 20 20" fill="none" xmlns="http://www.w3.org/2000/svg">
<path d="M11.6667 1.66669V6.66669C11.6666 6.94626 11.7368 7.22136 11.8709 7.46669L16.4626 15.8667C16.6014 16.1205 16.6719 16.4062 16.6669 16.6955C16.6619 16.9848 16.5816 17.2678 16.4341 17.5167C16.2865 17.7656 16.0767 17.9718 15.8252 18.115C15.5738 18.2582 15.2894 18.3334 15.0001 18.3334H5.00006C4.71071 18.3334 4.42632 18.2582 4.17489 18.115C3.92345 17.9718 3.71362 17.7656 3.56605 17.5167C3.41848 17.2678 3.33825 16.9848 3.33326 16.6955C3.32826 16.4062 3.39867 16.1205 3.53756 15.8667L8.12923 7.46669C8.2633 7.22136 8.33351 6.94626 8.33339 6.66669V1.66669" stroke="#F5B800" stroke-width="1.66667" stroke-linecap="round" stroke-linejoin="round"/>
<path d="M5.37744 12.5H14.6224" stroke="#F5B800" stroke-width="1.66667" stroke-linecap="round" stroke-linejoin="round"/>
<path d="M7.08337 1.66669H12.9167" stroke="#F5B800" stroke-width="1.66667" stroke-linecap="round" stroke-linejoin="round"/>
</svg>
