<svg width="14" height="14" viewBox="0 0 14 14" fill="none" xmlns="http://www.w3.org/2000/svg">
<g clip-path="url(#clip0_97_2849)">
<path d="M9.0906 7.51917L9.97435 12.4927C9.98425 12.5512 9.97604 12.6114 9.9508 12.6652C9.92557 12.719 9.88452 12.7637 9.83315 12.7935C9.78178 12.8234 9.72253 12.8368 9.66332 12.832C9.60412 12.8272 9.54779 12.8045 9.50185 12.7668L7.41352 11.1994C7.31271 11.1241 7.19024 11.0834 7.0644 11.0834C6.93855 11.0834 6.81609 11.1241 6.71527 11.1994L4.62344 12.7662C4.57754 12.8038 4.52127 12.8265 4.46214 12.8313C4.40301 12.8361 4.34383 12.8227 4.29249 12.793C4.24115 12.7633 4.2001 12.7186 4.17481 12.6649C4.14952 12.6113 4.14119 12.5512 4.15094 12.4927L5.0341 7.51917" stroke="#1B55C5" stroke-width="1.16667" stroke-linecap="round" stroke-linejoin="round"/>
<path d="M7.0625 8.16663C8.9955 8.16663 10.5625 6.59962 10.5625 4.66663C10.5625 2.73363 8.9955 1.16663 7.0625 1.16663C5.1295 1.16663 3.5625 2.73363 3.5625 4.66663C3.5625 6.59962 5.1295 8.16663 7.0625 8.16663Z" stroke="#1B55C5" stroke-width="1.16667" stroke-linecap="round" stroke-linejoin="round"/>
</g>
<defs>
<clipPath id="clip0_97_2849">
<rect width="14" height="14" fill="white"/>
</clipPath>
</defs>
</svg>
