<svg width="20" height="20" viewBox="0 0 20 20" fill="none" xmlns="http://www.w3.org/2000/svg">
<path d="M10.0001 10.8334C10.4603 10.8334 10.8334 10.4603 10.8334 10C10.8334 9.53978 10.4603 9.16669 10.0001 9.16669C9.53984 9.16669 9.16675 9.53978 9.16675 10C9.16675 10.4603 9.53984 10.8334 10.0001 10.8334Z" stroke="#F5B800" stroke-width="1.66667" stroke-linecap="round" stroke-linejoin="round"/>
<path d="M16.8332 16.8334C18.5332 15.1417 16.8499 10.7 13.0832 6.91669C9.29991 3.15003 4.85824 1.46669 3.16657 3.16669C1.46657 4.85836 3.14991 9.30003 6.91657 13.0834C10.6999 16.85 15.1416 18.5334 16.8332 16.8334Z" stroke="#F5B800" stroke-width="1.66667" stroke-linecap="round" stroke-linejoin="round"/>
<path d="M13.0832 13.0834C16.8499 9.30003 18.5332 4.85836 16.8332 3.16669C15.1416 1.46669 10.6999 3.15003 6.91657 6.91669C3.14991 10.7 1.46657 15.1417 3.16657 16.8334C4.85824 18.5334 9.29991 16.85 13.0832 13.0834Z" stroke="#F5B800" stroke-width="1.66667" stroke-linecap="round" stroke-linejoin="round"/>
</svg>
